# xmcd
#
# Track frame offsets:
#	150
#	14232
#	28279
#	38737
#	48466
#	59484
#	75954
#	89299
#	101908
#	111104
#	122267
#	131898
#
# Disc length: 1898 seconds
#
# Revision: 0
# Processed by: cddbd v1.5.2PL0 Copyright (c) Steve Scherf et al.
# Submitted via: audiograbber 1.83.01
#
DISCID=a107680c
DTITLE=Various Artist - Das waren Schlager 1963
DYEAR=1963
DGENRE=Schlager
TTITLE0=Freddy - Junge, komm bald wieder
TTITLE1=Margot Eskens - Ob In Bombay_ Ob In Rio
TTITLE2=Das Medium Terzett - Der Schatz Im Silbersee
TTITLE3=Tahiti Tamoures - Wini-Wini
TTITLE4=Liane Monti - Schuld War Nur Der Bossa Nova
TTITLE5=The Blue Diamonds - Sukiyaki
TTITLE6=Mina  - Heisser Sand
TTITLE7=Lou Van Burg  - Kleiner Gonzalel
TTITLE8=Connie Francis - Barcarole In Der Nacht
TTITLE9=Will Brandes und die kleine Elisabeth - Baby-Babbel-Bossa-Nova 
TTITLE10=Martin Lauer - Die Letzte Rose Der Prärie
TTITLE11=Peter Alexander - Wenn erst der Abend kommt
EXTD=
EXTT0=
EXTT1=
EXTT2=
EXTT3=
EXTT4=
EXTT5=
EXTT6=
EXTT7=
EXTT8=
EXTT9=
EXTT10=
EXTT11=
PLAYORDER=
